<?xml version="1.0" encoding="UTF-8" standalone="no"?>
<!-- Created with Inkscape (http://www.inkscape.org/) -->

<svg
   xmlns:dc="http://purl.org/dc/elements/1.1/"
   xmlns:cc="http://creativecommons.org/ns#"
   xmlns:rdf="http://www.w3.org/1999/02/22-rdf-syntax-ns#"
   xmlns:svg="http://www.w3.org/2000/svg"
   xmlns="http://www.w3.org/2000/svg"
   xmlns:sodipodi="http://sodipodi.sourceforge.net/DTD/sodipodi-0.dtd"
   xmlns:inkscape="http://www.inkscape.org/namespaces/inkscape"
   width="128"
   height="128"
   viewBox="0 0 33.866667 33.866667"
   version="1.1"
   id="svg8"
   inkscape:version="0.92.2 (5c3e80d, 2017-08-06)"
   sodipodi:docname="compass.svg"
   inkscape:export-filename="C:\Users\Jaksa\Desktop\compass.png"
   inkscape:export-xdpi="96"
   inkscape:export-ydpi="96">
  <defs
     id="defs2">
    <inkscape:path-effect
       effect="spiro"
       id="path-effect3762"
       is_visible="true" />
    <inkscape:path-effect
       effect="skeletal"
       id="path-effect3751"
       is_visible="true"
       pattern="M 0,5 C 0,2.24 2.24,0 5,0 7.76,0 10,2.24 10,5 10,7.76 7.76,10 5,10 2.24,10 0,7.76 0,5 Z"
       copytype="single_stretched"
       prop_scale="0.26458333"
       scale_y_rel="false"
       spacing="0"
       normal_offset="0"
       tang_offset="0"
       prop_units="false"
       vertical_pattern="false"
       fuse_tolerance="0" />
    <inkscape:path-effect
       effect="bspline"
       id="path-effect3749"
       is_visible="true"
       weight="33.333333"
       steps="2"
       helper_size="0"
       apply_no_weight="true"
       apply_with_weight="true"
       only_selected="false" />
    <inkscape:path-effect
       effect="bspline"
       id="path-effect3745"
       is_visible="true"
       weight="33.333333"
       steps="2"
       helper_size="0"
       apply_no_weight="true"
       apply_with_weight="true"
       only_selected="false" />
    <inkscape:path-effect
       effect="spiro"
       id="path-effect3762-2"
       is_visible="true" />
  </defs>
  <sodipodi:namedview
     id="base"
     pagecolor="#ffffff"
     bordercolor="#666666"
     borderopacity="1.0"
     inkscape:pageopacity="0.0"
     inkscape:pageshadow="2"
     inkscape:zoom="3.4745184"
     inkscape:cx="63.382474"
     inkscape:cy="60.190486"
     inkscape:document-units="mm"
     inkscape:current-layer="layer5"
     showgrid="false"
     inkscape:window-width="1092"
     inkscape:window-height="1046"
     inkscape:window-x="395"
     inkscape:window-y="39"
     inkscape:window-maximized="0"
     units="px"
     width="128px" />
  <metadata
     id="metadata5">
    <rdf:RDF>
      <cc:Work
         rdf:about="">
        <dc:format>image/svg+xml</dc:format>
        <dc:type
           rdf:resource="http://purl.org/dc/dcmitype/StillImage" />
        <dc:title></dc:title>
      </cc:Work>
    </rdf:RDF>
  </metadata>
  <g
     inkscape:label="Layer 1"
     inkscape:groupmode="layer"
     id="layer1"
     style="display:none"
     transform="translate(0,-263.13333)">
    <path
       style="fill:none;stroke:#000000;stroke-width:0.26458332px;stroke-linecap:butt;stroke-linejoin:miter;stroke-opacity:1"
       d="M 100.61939,12.201861 V 266.0134"
       id="path3755"
       inkscape:connector-curvature="0" />
  </g>
  <g
     inkscape:groupmode="layer"
     id="layer4"
     inkscape:label="Fill">
    <path
       transform="translate(0,-263.13333)"
       style="fill:#ffff00;stroke-width:0.07868529"
       d="m 16.754052,295.03005 c -0.383211,-1.20816 -1.205389,-3.27358 -1.76115,-4.42424 -0.960384,-1.98839 -1.904369,-3.22311 -2.808468,-3.67339 -0.607341,-0.30248 -1.762512,-0.34491 -2.767968,-0.10165 -1.899836,0.45961 -4.4462671,2.01825 -6.633264,4.06016 l -0.6240911,0.58269 -0.025251,-0.47358 c -0.080808,-1.51546 0.4725999,-5.19634 1.0831781,-7.20454 0.5945704,-1.95554 1.2641609,-3.09335 2.5689254,-4.36533 1.8600385,-1.8133 4.0482015,-2.92086 6.1662386,-3.12113 l 0.540416,-0.0511 0.302498,-0.80224 c 0.166373,-0.44122 1.175133,-3.14987 2.241689,-6.0192 1.066559,-2.86933 1.961912,-5.19076 1.989676,-5.15873 0.02777,0.032 1.047004,2.74538 2.264976,6.02965 l 2.214491,5.9714 0.283927,6.8e-4 c 0.419267,0.001 1.462225,0.21658 2.142131,0.44237 2.313509,0.76832 4.726316,2.68483 5.838813,4.63779 1.111122,1.95057 1.885451,5.35144 2.111966,9.27581 l 0.05211,0.90279 -0.767821,-0.69561 c -2.094189,-1.89724 -4.085426,-3.18338 -5.916575,-3.82155 -0.829676,-0.28915 -0.894332,-0.29915 -1.950285,-0.30169 -0.946798,-0.002 -1.138884,0.0195 -1.443211,0.1631 -1.372663,0.64794 -3.037401,3.50117 -4.371851,7.49301 -0.226178,0.6766 -0.433671,1.25678 -0.46109,1.28932 -0.02742,0.0325 -0.148923,-0.25317 -0.270008,-0.63491 z m 0.344249,-15.73376 c 0,-8.20104 -0.02634,-12.38092 -0.078,-12.38092 -0.05167,0 -0.078,4.17988 -0.078,12.38092 0,8.20105 0.02634,12.38095 0.078,12.38095 0.05167,0 0.078,-4.1799 0.078,-12.38095 z M 3.0565562,289.55424 c 4.056e-4,-0.40874 0.2075435,-1.67407 0.3988421,-2.43672 0.6544944,-2.60926 1.9694273,-4.94133 3.7839687,-6.71095 1.377286,-1.3432 2.704403,-1.98056 4.125094,-1.98117 0.969166,-2.9e-4 1.637355,0.26542 2.167367,0.86226 0.356047,0.40095 0.475903,0.78949 0.423812,1.37391 -0.12022,1.34884 -1.455005,2.6606 -3.288825,3.23212 -0.601017,0.1873 -1.435802,0.22731 -1.79872,0.0862 -0.733358,-0.28515 -1.015943,-1.08473 -0.657517,-1.86048 0.295711,-0.64002 1.621513,-1.77607 2.284741,-1.95775 1.146394,-0.31405 1.67837,0.89102 0.721214,1.63374 -0.35205,0.27317 -0.704446,0.37142 -0.967417,0.26971 -0.243945,-0.0944 -0.325034,-0.20425 -0.326673,-0.4427 -6.24e-4,-0.0957 -0.0363,-0.19595 -0.07921,-0.22294 -0.178836,-0.11244 -0.07232,0.44952 0.122838,0.64807 0.405162,0.41219 1.24487,0.11723 1.729936,-0.60764 0.254198,-0.37987 0.234651,-0.80393 -0.05211,-1.13044 -0.217976,-0.24818 -0.251983,-0.25918 -0.801402,-0.25918 -0.522492,0 -0.611875,0.0248 -1.000234,0.27777 -1.481403,0.9649 -2.116806,1.93395 -1.872137,2.85519 0.302387,1.13857 1.76833,1.35213 3.559452,0.51853 0.991419,-0.46141 1.725925,-1.0932 2.200731,-1.89299 1.180593,-1.98863 -0.463324,-3.87523 -3.024483,-3.47095 -1.325248,0.20918 -2.559902,0.92191 -3.7880193,2.18668 -2.0956075,2.15816 -3.4979464,5.10622 -3.9008111,8.20045 -0.1381868,1.06135 -0.1404406,1.12689 -0.038769,1.12689 0.042905,0 0.078152,-0.13392 0.078325,-0.29761 z m 27.9813788,-0.32957 c -0.230523,-3.04122 -1.703539,-6.31849 -3.865387,-8.59999 -1.51763,-1.60161 -2.936298,-2.31838 -4.57444,-2.31122 -0.96537,0.004 -1.529031,0.20051 -2.079165,0.72404 -0.481771,0.45846 -0.639662,0.87553 -0.600229,1.58551 0.04141,0.74559 0.339321,1.34551 0.996454,2.00662 0.618929,0.62268 1.182332,0.97042 2.091626,1.291 1.479654,0.5217 2.601853,0.31269 2.956412,-0.55062 0.357573,-0.87062 -0.134569,-1.82811 -1.424619,-2.77166 -0.607661,-0.44445 -0.947992,-0.58776 -1.395766,-0.58776 -0.468458,0 -0.765953,0.16515 -0.929645,0.51609 -0.230518,0.49421 0.01917,1.07295 0.634075,1.46967 0.388719,0.2508 0.74014,0.29882 1.069498,0.14615 0.231391,-0.10725 0.391768,-0.50109 0.281954,-0.69239 -0.06167,-0.10742 -0.07503,-0.0951 -0.07699,0.0706 -0.0061,0.50613 -0.437795,0.72563 -0.961132,0.4886 -0.686616,-0.31097 -1.07309,-0.98373 -0.826397,-1.43857 0.161552,-0.29786 0.62678,-0.5061 0.990832,-0.44353 0.581705,0.10005 1.76074,0.9502 2.233866,1.61087 0.611722,0.85419 0.495285,1.76454 -0.276961,2.16534 -0.629179,0.32655 -1.754884,0.17175 -2.917836,-0.40125 -1.661352,-0.81856 -2.619471,-2.29851 -2.271383,-3.50849 0.420675,-1.4623 2.344526,-1.99244 4.338685,-1.19559 2.082193,0.83206 4.308385,3.43241 5.505752,6.43116 0.507552,1.27111 0.79626,2.48371 1.010855,4.24562 0.07483,0.61441 0.141443,0.42914 0.08995,-0.25019 z"
       id="path3828"
       inkscape:connector-curvature="0" />
  </g>
  <g
     inkscape:groupmode="layer"
     id="layer2"
     inkscape:label="Shape"
     transform="translate(0,-263.13333)"
     style="display:inline">
    <path
       style="fill:none;stroke:#000000;stroke-width:0.1;stroke-linecap:butt;stroke-linejoin:miter;stroke-opacity:1;stroke-miterlimit:4;stroke-dasharray:none"
       d="m 31.963967,291.69375 c 0,0 -5.662576,-5.90224 -9.776066,-4.85719 -2.731807,0.69402 -5.171285,9.15539 -5.171285,9.15539"
       id="path3753"
       inkscape:connector-curvature="0"
       sodipodi:nodetypes="csc" />
    <path
       style="fill:none;stroke:#000000;stroke-width:0.05673684px;stroke-linecap:butt;stroke-linejoin:miter;stroke-opacity:1"
       d="m 17,266.94153 v 24.69601"
       id="path3758"
       inkscape:connector-curvature="0" />
    <path
       style="fill:none;stroke:#d08b1f;stroke-width:0.3;stroke-linecap:butt;stroke-linejoin:miter;stroke-opacity:1;stroke-miterlimit:4;stroke-dasharray:none"
       d="m 31.028825,289.78851 c -0.180012,-3.18791 -1.438194,-6.30535 -3.521409,-8.72514 -0.646046,-0.75042 -1.375854,-1.44063 -2.228627,-1.94391 -0.852772,-0.50328 -1.836937,-0.81294 -2.826292,-0.77186 -0.49213,0.0204 -0.986539,0.1295 -1.41713,0.36867 -0.430591,0.23916 -0.793805,0.61529 -0.968336,1.07589 -0.15367,0.40554 -0.155593,0.85993 -0.04645,1.27965 0.109147,0.41973 0.32496,0.80654 0.591186,1.14889 0.721764,0.92815 1.808121,1.52997 2.949147,1.81363 0.405918,0.10091 0.829426,0.16457 1.242281,0.0975 0.206428,-0.0335 0.408466,-0.10012 0.588943,-0.20579 0.180477,-0.10567 0.338979,-0.25115 0.450377,-0.42815 0.151137,-0.24014 0.210807,-0.53223 0.189383,-0.81516 -0.02142,-0.28293 -0.120999,-0.55677 -0.266019,-0.80065 -0.290041,-0.48777 -0.748617,-0.84843 -1.203169,-1.18816 -0.364899,-0.27273 -0.75235,-0.5475 -1.201971,-0.62079 -0.22481,-0.0367 -0.461516,-0.0193 -0.669973,0.0725 -0.208457,0.0918 -0.385985,0.26191 -0.465222,0.47546 -0.04553,0.12271 -0.05814,0.25673 -0.04224,0.38665 0.0159,0.12991 0.05986,0.25574 0.123074,0.37035 0.126426,0.22923 0.326626,0.41028 0.544617,0.55521 0.17738,0.11793 0.373585,0.21633 0.585,0.24232 0.105707,0.013 0.214247,0.007 0.316572,-0.0221 0.102325,-0.0295 0.198257,-0.0835 0.272577,-0.15978 0.07098,-0.0729 0.12138,-0.16555 0.143944,-0.26473 0.02257,-0.0992 0.01723,-0.20456 -0.01525,-0.30095"
       id="path3760"
       inkscape:connector-curvature="0"
       inkscape:path-effect="#path-effect3762"
       inkscape:original-d="m 31.028825,289.78851 c -0.301874,-3.62648 -1.22657,-6.19696 -3.521409,-8.72514 -2.096581,-2.30975 -3.155213,-2.86709 -5.054919,-2.71577 -1.892617,0.15076 -2.072022,0.5587 -2.385466,1.44456 -0.434946,1.22922 -0.236416,0.80923 0.54474,2.42854 0.580344,1.20303 2.191477,1.58873 2.949147,1.81363 0.75767,0.22488 1.703643,0.11577 2.281601,-0.53646 1.049927,-1.18485 0.114005,-2.06177 -1.279805,-2.80397 -1.686658,-0.89815 -1.041161,-0.44435 -2.337166,-0.0728 -1.083916,0.31068 -0.342454,0.48859 0.625447,1.31221 1.419361,1.20776 0.712433,0.3765 1.174149,0.0604 0.590514,-0.40421 0.08723,-0.34048 0.128696,-0.56568"
       sodipodi:nodetypes="cssssssssssc" />
    <path
       style="display:inline;fill:none;stroke:#000000;stroke-width:0.1;stroke-linecap:butt;stroke-linejoin:miter;stroke-opacity:1;stroke-miterlimit:4;stroke-dasharray:none"
       d="m 17.017709,264.0112 4.54237,12.20701 c 0,0 3.812684,-0.1786 7.436743,3.89358 2.932306,3.29488 3.011519,11.60002 2.967145,11.58196"
       id="path3726"
       inkscape:connector-curvature="0"
       sodipodi:nodetypes="ccsc" />
    <path
       style="fill:none;stroke:#000000;stroke-width:0.1;stroke-linecap:butt;stroke-linejoin:miter;stroke-opacity:1;stroke-miterlimit:4;stroke-dasharray:none"
       d="m 2.036033,291.69375 c 0,0 5.662576,-5.90225 9.776068,-4.8572 2.731805,0.69403 5.171282,9.1554 5.171282,9.1554"
       id="path3753-1"
       inkscape:connector-curvature="0"
       sodipodi:nodetypes="csc" />
    <path
       style="fill:none;stroke:#000000;stroke-width:0.05673684px;stroke-linecap:butt;stroke-linejoin:miter;stroke-opacity:1"
       d="m 17,266.94153 v 24.69601"
       id="path3758-1"
       inkscape:connector-curvature="0" />
    <path
       style="fill:none;stroke:#d08b1f;stroke-width:0.3;stroke-linecap:butt;stroke-linejoin:miter;stroke-opacity:1;stroke-miterlimit:4;stroke-dasharray:none"
       d="m 2.9711762,289.78851 c 0.1800097,-3.18791 1.4381907,-6.30535 3.5214065,-8.72514 0.6460467,-0.75042 1.3758547,-1.44063 2.2286275,-1.94391 0.8527728,-0.50328 1.8369368,-0.81294 2.8262928,-0.77186 0.49213,0.0204 0.98654,0.1295 1.417131,0.36867 0.430591,0.23916 0.793806,0.61529 0.968337,1.07589 0.15367,0.40554 0.155593,0.85993 0.04645,1.27965 -0.109147,0.41973 -0.32496,0.80654 -0.591187,1.14889 -0.721765,0.92815 -1.808123,1.52997 -2.949148,1.81363 -0.405918,0.10091 -0.8294265,0.16458 -1.2422827,0.0975 -0.2064281,-0.0335 -0.4084657,-0.10011 -0.5889427,-0.20578 -0.1804769,-0.10567 -0.3389789,-0.25116 -0.4503756,-0.42816 -0.1511343,-0.24014 -0.2108019,-0.53223 -0.1893745,-0.81516 0.021427,-0.28293 0.121004,-0.55677 0.2660255,-0.80065 0.290043,-0.48776 0.7486154,-0.84842 1.203155,-1.18817 0.3648916,-0.27274 0.75233,-0.54753 1.201949,-0.62085 0.224809,-0.0367 0.461517,-0.0193 0.669979,0.0725 0.208461,0.0918 0.385995,0.2619 0.465236,0.47545 0.04553,0.12271 0.05815,0.25673 0.04225,0.38664 -0.0159,0.12992 -0.05986,0.25575 -0.123073,0.37036 -0.126427,0.22922 -0.326627,0.41027 -0.544618,0.5552 -0.17738,0.11793 -0.373586,0.21632 -0.585,0.24231 -0.105708,0.013 -0.214247,0.007 -0.316572,-0.0221 -0.102325,-0.0295 -0.198258,-0.0835 -0.272578,-0.15978 -0.070981,-0.0729 -0.1213828,-0.16555 -0.1439474,-0.26474 -0.022565,-0.0992 -0.017225,-0.20456 0.01525,-0.30095"
       id="path3760-2"
       inkscape:connector-curvature="0"
       inkscape:path-effect="#path-effect3762-2"
       inkscape:original-d="m 2.9711762,289.78851 c 0.3018724,-3.62648 1.2265692,-6.19696 3.5214065,-8.72514 2.0965803,-2.30976 3.1552133,-2.86709 5.0549203,-2.71577 1.892617,0.15075 2.07202,0.5587 2.385468,1.44456 0.434943,1.22922 0.236413,0.80923 -0.544741,2.42854 -0.580345,1.20303 -2.191478,1.58873 -2.949148,1.81363 -0.757669,0.22488 -1.703643,0.11577 -2.281601,-0.53646 -1.049929,-1.18485 -0.114005,-2.06178 1.279806,-2.80398 1.686656,-0.89814 1.04116,-0.44434 2.337164,-0.0729 1.083919,0.31067 0.342455,0.48859 -0.625444,1.3122 -1.419364,1.20777 -0.712435,0.37652 -1.17415,0.0604 C 9.38434,281.58937 9.887617,281.6531 9.84616,281.4279"
       sodipodi:nodetypes="cssssssssssc" />
    <path
       style="display:inline;fill:none;stroke:#000000;stroke-width:0.1;stroke-linecap:butt;stroke-linejoin:miter;stroke-opacity:1;stroke-miterlimit:4;stroke-dasharray:none"
       d="m 16.982291,264.0112 -4.54237,12.20701 c 0,0 -3.812684,-0.1786 -7.4367438,3.89358 -2.9323067,3.29488 -3.0115177,11.60002 -2.9671442,11.58196"
       id="path3726-9"
       inkscape:connector-curvature="0"
       sodipodi:nodetypes="ccsc" />
  </g>
  <g
     inkscape:groupmode="layer"
     id="layer5"
     inkscape:label="Colour">
    <path
       transform="translate(0,-263.13333)"
       style="display:inline;fill:none;stroke:#d08b1f;stroke-width:0.265;stroke-linecap:butt;stroke-linejoin:miter;stroke-opacity:1;stroke-miterlimit:4;stroke-dasharray:none"
       d="m 17,266.94153 v 24.69601"
       id="path3832"
       inkscape:connector-curvature="0" />
  </g>
</svg>
